<svg xmlns="http://www.w3.org/2000/svg" viewBox="0 0 966.53 410.31"><defs><style>.cls-1{fill:#0061ff;}.cls-2{fill:#fff;}.cls-3{font-size:68px;font-family:Gilroy-ExtraBold, Gilroy;font-weight:800;letter-spacing:-0.03em;}.cls-4{letter-spacing:0em;}.cls-5{letter-spacing:-0.02em;}</style></defs><title>by_skyrocket_agency</title><g id="Ebene_2" data-name="Ebene 2"><g id="Ebene_1-2" data-name="Ebene 1"><rect class="cls-1" x="1.53" y="100.31" width="965" height="310"/><path class="cls-2" d="M494.33,209.08A27,27,0,0,0,513,216.57c3.31,0,6.44-1.13,6.44-3.4s-2.44-3.39-8.18-4.43c-9.57-1.74-24.19-4-24.19-18.54,0-9.83,8.18-18.79,24.1-18.79,9.49,0,18,2.7,24.62,8.09l-9.39,12.44a29,29,0,0,0-16.19-5.74c-4.34,0-5.3,1.57-5.3,3.05,0,2.26,2.35,3,8.52,4.09,9.57,1.65,23.76,4.43,23.76,17.83,0,12.79-9.49,20.19-25.06,20.19-12.36,0-20.79-3.66-27-9.23Z"/><path class="cls-2" d="M561.32,216.74l-3,4.09v9.48H542.62v-58h15.66v31l9.66-15h18.88l-14.45,19.14,15.4,22.88H568.54Z"/><path class="cls-2" d="M596.12,233.53c3,0,5-.52,5.48-1.65L602,231l-16.53-42.72H602l8,24,8.09-24h16.53l-18.27,47.24c-3.74,9.75-10.7,11.58-19.58,11.84a31.54,31.54,0,0,1-6.09-.7l2.18-13.92A7.37,7.37,0,0,0,596.12,233.53Z"/><path class="cls-2" d="M637.62,188.29h15.66v4.79a18.78,18.78,0,0,1,12.88-5.83v15a12.48,12.48,0,0,0-3.57-.43c-3.31,0-7.57.87-9.31,2.95v25.58H637.62Z"/><path class="cls-2" d="M668.68,209.26c0-11.75,8.7-22,23.58-22s23.66,10.26,23.66,22-8.7,22.1-23.66,22.1S668.68,221,668.68,209.26Zm31.15,0c0-4.61-2.7-8.18-7.57-8.18s-7.49,3.57-7.49,8.18,2.7,8.26,7.49,8.26S699.83,214,699.83,209.26Z"/><path class="cls-2" d="M742.46,187.25c9.57,0,15.48,4.35,17.83,7.91l-10.09,9.49a8.2,8.2,0,0,0-7.05-3.57c-4.44,0-8.26,2.78-8.26,8.18s3.82,8.26,8.26,8.26a8.47,8.47,0,0,0,7.05-3.65l10.09,9.57c-2.35,3.48-8.26,7.92-17.83,7.92-13.32,0-23.58-8.7-23.58-22.1S729.14,187.25,742.46,187.25Z"/><path class="cls-2" d="M784.13,216.74l-3,4.09v9.48H765.42v-58h15.66v31l9.66-15h18.88l-14.44,19.14,15.4,22.88H791.35Z"/><path class="cls-2" d="M833,187.25c12.36,0,21.84,8.87,21.84,23.66v3.22H826.32c.87,2.7,3.92,5.31,9.23,5.31a16.63,16.63,0,0,0,9.48-3l6.44,9.66c-4.18,3.57-11.66,5.22-17.93,5.22-13.13,0-23.4-8.27-23.4-22.1C810.14,197.08,819.45,187.25,833,187.25Zm-6.87,17H840c-.43-1.83-1.91-5-7-5C828.24,199.17,826.67,202.3,826.15,204.21Z"/><path class="cls-2" d="M863.47,218.13V201.86h-7V188.29h7V176.8h15.66v11.49h8.53v13.57h-8.53v11.75c0,2.17,1.39,3.91,3.48,3.91a5.69,5.69,0,0,0,3.13-.78l2.79,11.83c-1.65,1.48-5.31,2.79-10.62,2.79C868.6,231.36,863.47,226.92,863.47,218.13Z"/><path class="cls-2" d="M527,327.23H504.69l-2.27,7.48H483.37l21.4-58h22.1l21.41,58H529.22Zm-17.75-14.62h13.23l-6.62-20.44Z"/><path class="cls-2" d="M556.19,334.37c3.22,3.21,8,4.61,12.53,4.61,3.65,0,9.74-1.4,9.74-8.79v-2.26c-3.56,4.09-7.48,5.65-11.83,5.65-10.09,0-18.45-6.61-18.45-21,0-14,8.1-21,18.45-21a14.78,14.78,0,0,1,11.83,5.48v-4.44h15.66v37.5c0,18.18-15,21.58-25.4,21.58-7.22,0-13.66-1.92-19.14-6.27Zm22.27-26.19a9.32,9.32,0,0,0-6.44-2.7c-4.26,0-7.83,2-7.83,7.13s3.57,7.14,7.83,7.14a9.32,9.32,0,0,0,6.44-2.7Z"/><path class="cls-2" d="M622.83,291.65c12.36,0,21.84,8.87,21.84,23.66v3.22H616.13c.87,2.7,3.92,5.31,9.22,5.31a16.64,16.64,0,0,0,9.49-3l6.44,9.66c-4.18,3.56-11.66,5.22-17.93,5.22-13.14,0-23.4-8.27-23.4-22.1C600,301.48,609.26,291.65,622.83,291.65Zm-6.87,17h13.83c-.43-1.82-1.91-5-7-5C618.05,303.57,616.48,306.7,616,308.61Z"/><path class="cls-2" d="M678.51,311.48c0-4.35-2.35-6-6.09-6a8.3,8.3,0,0,0-6.7,3.31v25.92H650.06v-42h15.66v4.78c2.44-2.78,7-5.82,14.44-5.82,9.75,0,14,5.91,14,13.22v29.84H678.51Z"/><path class="cls-2" d="M723.58,291.65c9.57,0,15.48,4.35,17.83,7.91l-10.09,9.49a8.18,8.18,0,0,0-7.05-3.57c-4.44,0-8.26,2.78-8.26,8.18s3.82,8.26,8.26,8.26a8.47,8.47,0,0,0,7.05-3.65l10.09,9.57c-2.35,3.48-8.26,7.92-17.83,7.92-13.32,0-23.58-8.7-23.58-22.1S710.26,291.65,723.58,291.65Z"/><path class="cls-2" d="M751.59,337.93c3,0,5-.52,5.48-1.65l.35-.87-16.53-42.72h16.53l8,24,8.09-24h16.54l-18.28,47.24c-3.74,9.75-10.7,11.58-19.57,11.84a31.54,31.54,0,0,1-6.09-.7l2.17-13.92A7.42,7.42,0,0,0,751.59,337.93Z"/><rect class="cls-2" x="114.16" y="209.63" width="164.22" height="77.48" rx="33.5"/><rect class="cls-2" x="183.55" y="165.68" width="89.05" height="89.05" rx="38.5"/><rect class="cls-2" x="72.53" y="262.82" width="340" height="77.48" rx="33.5"/><rect class="cls-2" x="242.53" y="157.54" width="144.32" height="144.32" rx="62.4"/><text class="cls-3" transform="translate(0 57.8)">R<tspan class="cls-4" x="39.92" y="0">oadmap </tspan><tspan class="cls-5" x="323.07" y="0">b</tspan><tspan class="cls-4" x="363.87" y="0">y</tspan></text></g></g></svg>