<svg xmlns="http://www.w3.org/2000/svg" viewBox="0 0 1903.25 827.4"><defs><style>.cls-1{fill:#0061ff;stroke:#000;stroke-miterlimit:10;stroke-width:0.25px;}.cls-2{font-size:109px;fill:#fff;font-family:Gilroy-ExtraBold, Gilroy;font-weight:800;letter-spacing:0em;}.cls-3,.cls-4,.cls-5{font-family:ProximaNova-Black, Proxima Nova;}.cls-4,.cls-8{letter-spacing:-0.01em;}.cls-10,.cls-5{letter-spacing:0em;}.cls-6{letter-spacing:-0.02em;}.cls-7{letter-spacing:-0.02em;}.cls-9{letter-spacing:-0.03em;}.cls-11{letter-spacing:-0.01em;}</style></defs><title>hashtasgs</title><g id="Ebene_2" data-name="Ebene 2"><g id="Ebene_1-2" data-name="Ebene 1"><rect class="cls-1" x="0.13" y="0.49" width="572" height="245.57" rx="122.79"/><text class="cls-2" transform="translate(113.03 147.79)">#<tspan class="cls-3" x="67.36" y="0">cloud</tspan></text><rect class="cls-1" x="219.37" y="295.34" width="788.75" height="245.57" rx="122.79"/><text class="cls-2" transform="translate(319.78 442.64)">#<tspan class="cls-3" x="67.36" y="0">mar</tspan><tspan class="cls-4" x="267.59" y="0">k</tspan><tspan class="cls-5" x="326.89" y="0">eting</tspan></text><rect class="cls-1" x="1051.56" y="295.34" width="851.57" height="245.57" rx="122.79"/><text class="cls-2" transform="translate(1140.07 442.64)">#depl<tspan class="cls-6" x="293.42" y="0">o</tspan><tspan x="355.23" y="0">yment</tspan></text><rect class="cls-1" x="614.21" y="0.13" width="877.92" height="245.57" rx="122.79"/><text class="cls-2" transform="translate(687.9 147.42)">#mon<tspan class="cls-7" x="287.21" y="0">e</tspan><tspan class="cls-8" x="348.47" y="0">t</tspan><tspan x="389.34" y="0">i</tspan><tspan class="cls-9" x="417.36" y="0">z</tspan><tspan class="cls-10" x="465.53" y="0">a</tspan><tspan class="cls-8" x="533.11" y="0">t</tspan><tspan x="573.98" y="0">ion</tspan></text><rect class="cls-1" x="707.12" y="581.7" width="668.41" height="245.57" rx="122.79"/><text class="cls-2" transform="translate(789.11 729)">#analy<tspan class="cls-8" x="351.19" y="0">t</tspan><tspan x="392.07" y="0">i</tspan><tspan class="cls-11" x="420.08" y="0">c</tspan><tspan x="477.09" y="0">s</tspan></text></g></g></svg>