<svg xmlns="http://www.w3.org/2000/svg" viewBox="0 0 816 194.23"><defs><style>.cls-1{fill:#0061ff;}</style></defs><title>logo_primary</title><g id="Ebene_2" data-name="Ebene 2"><g id="Ebene_1-2" data-name="Ebene 1"><path class="cls-1" d="M421.8,51.55A27.08,27.08,0,0,0,440.51,59c3.3,0,6.44-1.13,6.44-3.39s-2.44-3.4-8.18-4.44c-9.57-1.74-24.19-4-24.19-18.53,0-9.83,8.18-18.8,24.1-18.8,9.48,0,18,2.7,24.62,8.1l-9.39,12.44a28.92,28.92,0,0,0-16.19-5.75c-4.35,0-5.3,1.57-5.3,3.05,0,2.26,2.34,3,8.52,4.09,9.57,1.65,23.76,4.44,23.76,17.84,0,12.79-9.49,20.18-25.06,20.18-12.36,0-20.8-3.65-27-9.22Z"/><path class="cls-1" d="M488.79,59.2l-3,4.09v9.49H470.08v-58h15.67v31l9.65-15h18.88L499.84,49.9l15.4,22.88H496Z"/><path class="cls-1" d="M523.59,76c3,0,5-.53,5.48-1.66l.35-.87L512.89,30.75h16.53l8,24,8.09-24h16.54L543.78,78C540,87.74,533.07,89.57,524.2,89.83a31.54,31.54,0,0,1-6.09-.7l2.17-13.92A7.3,7.3,0,0,0,523.59,76Z"/><path class="cls-1" d="M565.09,30.75h15.66v4.79a18.78,18.78,0,0,1,12.88-5.83v15a12.48,12.48,0,0,0-3.57-.43c-3.31,0-7.57.87-9.31,3V72.78H565.09Z"/><path class="cls-1" d="M596.15,51.72c0-11.74,8.7-22,23.57-22s23.67,10.27,23.67,22-8.7,22.1-23.67,22.1S596.15,63.47,596.15,51.72Zm31.14,0c0-4.61-2.69-8.18-7.57-8.18s-7.48,3.57-7.48,8.18,2.7,8.27,7.48,8.27S627.29,56.42,627.29,51.72Z"/><path class="cls-1" d="M669.92,29.71c9.57,0,15.49,4.35,17.84,7.92l-10.09,9.48a8.2,8.2,0,0,0-7-3.57c-4.44,0-8.27,2.79-8.27,8.18S666.18,60,670.62,60a8.45,8.45,0,0,0,7-3.66l10.09,9.57c-2.35,3.48-8.27,7.92-17.84,7.92-13.31,0-23.58-8.7-23.58-22.1S656.61,29.71,669.92,29.71Z"/><path class="cls-1" d="M711.6,59.2l-3.05,4.09v9.49H692.89v-58h15.66v31l9.66-15h18.88L722.65,49.9l15.4,22.88H718.82Z"/><path class="cls-1" d="M760.49,29.71c12.35,0,21.84,8.87,21.84,23.66v3.22H753.79c.87,2.7,3.92,5.31,9.22,5.31a16.57,16.57,0,0,0,9.49-3l6.44,9.66c-4.18,3.57-11.66,5.22-17.93,5.22-13.14,0-23.4-8.26-23.4-22.1C737.61,39.54,746.92,29.71,760.49,29.71Zm-6.87,17h13.83c-.43-1.83-1.91-5-7-5C755.71,41.63,754.14,44.76,753.62,46.68Z"/><path class="cls-1" d="M790.94,60.6V44.33h-7V30.75h7V19.27H806.6V30.75h8.53V44.33H806.6V56.07c0,2.18,1.39,3.92,3.48,3.92a5.7,5.7,0,0,0,3.13-.79L816,71c-1.66,1.48-5.31,2.78-10.62,2.78C796.07,73.82,790.94,69.38,790.94,60.6Z"/><path class="cls-1" d="M454.43,169.69H432.15l-2.26,7.49H410.84l21.4-58h22.1l21.4,58H456.69Zm-17.75-14.61H449.9l-6.61-20.45Z"/><path class="cls-1" d="M483.66,176.83c3.22,3.22,8,4.61,12.53,4.61,3.65,0,9.74-1.39,9.74-8.79v-2.26c-3.57,4.09-7.48,5.66-11.83,5.66-10.1,0-18.45-6.62-18.45-21,0-14,8.09-21,18.45-21a14.78,14.78,0,0,1,11.83,5.48v-4.44h15.66v37.5c0,18.19-15,21.58-25.4,21.58-7.23,0-13.66-1.91-19.15-6.26Zm22.27-26.19a9.34,9.34,0,0,0-6.44-2.7c-4.26,0-7.83,2-7.83,7.14s3.57,7.13,7.83,7.13a9.34,9.34,0,0,0,6.44-2.7Z"/><path class="cls-1" d="M550.3,134.11c12.35,0,21.84,8.87,21.84,23.66V161H543.6c.87,2.7,3.91,5.31,9.22,5.31a16.51,16.51,0,0,0,9.48-3l6.44,9.66c-4.17,3.57-11.66,5.22-17.92,5.22-13.14,0-23.4-8.26-23.4-22.1C527.42,143.94,536.73,134.11,550.3,134.11Zm-6.87,17h13.83c-.44-1.82-1.92-5-7-5C545.51,146,544,149.16,543.43,151.07Z"/><path class="cls-1" d="M606,154c0-4.35-2.35-6-6.09-6a8.28,8.28,0,0,0-6.7,3.31v25.93H577.53v-42h15.66v4.79c2.44-2.78,7-5.83,14.44-5.83,9.75,0,14,5.92,14,13.22v29.85H606Z"/><path class="cls-1" d="M651,134.11c9.58,0,15.49,4.35,17.84,7.92l-10.09,9.48a8.2,8.2,0,0,0-7-3.57c-4.44,0-8.27,2.79-8.27,8.18s3.83,8.27,8.27,8.27a8.45,8.45,0,0,0,7-3.66l10.09,9.57c-2.35,3.48-8.26,7.92-17.84,7.92-13.31,0-23.58-8.7-23.58-22.1S637.73,134.11,651,134.11Z"/><path class="cls-1" d="M679.06,180.4c3,0,5-.53,5.48-1.66l.35-.87-16.53-42.72h16.53l8,24,8.09-24h16.53L699.24,182.4c-3.74,9.74-10.7,11.57-19.57,11.83a31.45,31.45,0,0,1-6.09-.7l2.17-13.92A7.3,7.3,0,0,0,679.06,180.4Z"/><rect class="cls-1" x="41.63" y="52.09" width="164.22" height="77.48" rx="33.5"/><rect class="cls-1" x="111.02" y="8.14" width="89.05" height="89.05" rx="38.5"/><rect class="cls-1" y="105.29" width="340" height="77.48" rx="33.5"/><rect class="cls-1" x="170" width="144.32" height="144.32" rx="62.4"/></g></g></svg>