<svg xmlns="http://www.w3.org/2000/svg" viewBox="0 0 1146.82 498.61"><defs><style>.cls-1{fill:#0061ff;stroke:#000;stroke-miterlimit:10;stroke-width:0.25px;}.cls-2,.cls-5{font-size:65.67px;font-family:Gilroy-ExtraBold, Gilroy;font-weight:800;}.cls-2,.cls-5,.cls-7{fill:#fff;}.cls-2{letter-spacing:0em;}.cls-3,.cls-4{font-family:ProximaNova-Black, Proxima Nova;}.cls-4{letter-spacing:-0.01em;}.cls-5,.cls-9{letter-spacing:0em;}.cls-6{letter-spacing:-0.02em;}.cls-8{letter-spacing:-0.01em;}.cls-10{letter-spacing:-0.01em;}.cls-11{letter-spacing:0em;}</style></defs><title>path_hashtags</title><g id="Ebene_2" data-name="Ebene 2"><g id="Ebene_1-2" data-name="Ebene 1"><rect class="cls-1" x="0.13" y="0.34" width="344.63" height="147.96" rx="73.98"/><text class="cls-2" transform="translate(68.15 89.09)">#<tspan class="cls-3" x="40.59" y="0">cloud</tspan></text><rect class="cls-1" x="132.22" y="177.99" width="475.23" height="147.96" rx="73.98"/><text class="cls-2" transform="translate(192.72 266.74)">#<tspan class="cls-3" x="40.59" y="0">mar</tspan><tspan class="cls-4" x="161.23" y="0">k</tspan><tspan class="cls-3" x="196.95" y="0">eting</tspan></text><rect class="cls-1" x="633.62" y="177.99" width="513.07" height="147.96" rx="73.98"/><text class="cls-5" transform="translate(686.95 266.74)">#depl<tspan class="cls-6" x="176.79" y="0">o</tspan><tspan x="214.02" y="0">yment</tspan></text><rect class="cls-1" x="370.11" y="0.12" width="528.95" height="147.96" rx="73.98"/><path class="cls-7" d="M452.8,63.26h-6.89L445,68.52h7l-1.12,7.22h-7l-1.65,9.85h-7.48l1.64-9.85h-6l-1.65,9.85h-7.48l1.64-9.85h-7L417,68.52h7l.92-5.26h-7L419.05,56h7l1.65-9.85h7.48L433.56,56h6l1.64-9.85h7.49L447.09,56H454Zm-15.3,5.26.92-5.26h-6l-.92,5.26Z"/><path class="cls-7" d="M495.49,55.12a11.7,11.7,0,0,1,9.06,3.71q3.42,3.7,3.42,9.88V88.87h-9.85V69.57a5.91,5.91,0,0,0-1.22-3.94,4.31,4.31,0,0,0-3.51-1.45,4.63,4.63,0,0,0-3.78,1.64,7,7,0,0,0-1.34,4.53V88.87h-9.85V69.57a5.91,5.91,0,0,0-1.22-3.94,4.31,4.31,0,0,0-3.51-1.45,4.63,4.63,0,0,0-3.78,1.64,7,7,0,0,0-1.35,4.53V88.87h-9.85V56h9.85v3q2.7-3.95,8.8-3.94A9.67,9.67,0,0,1,486,59.45Q489,55.12,495.49,55.12Z"/><path class="cls-7" d="M542.64,84.77a17.41,17.41,0,0,1-29.75-12.31,17.41,17.41,0,1,1,29.75,12.31ZM524.91,78a7.79,7.79,0,0,0,10.77,0,8.27,8.27,0,0,0,0-11.17,7.79,7.79,0,0,0-10.77,0,8.27,8.27,0,0,0,0,11.17Z"/><path class="cls-7" d="M572.33,55.12a11.71,11.71,0,0,1,8.76,3.61q3.52,3.62,3.52,10V88.87h-9.85V70.16a5.88,5.88,0,0,0-1.61-4.44A5.74,5.74,0,0,0,569,64.18a5.88,5.88,0,0,0-4.46,1.71,7,7,0,0,0-1.64,5V88.87h-9.86V56h9.86v3.08Q565.9,55.12,572.33,55.12Z"/><path class="cls-7" d="M600,76.4Q601.68,81,607.86,81a8.14,8.14,0,0,0,6.3-2.49L622,83q-4.86,6.77-14.32,6.76-8.26,0-13.23-4.92a16.8,16.8,0,0,1-5-12.41A16.86,16.86,0,0,1,607,55.12a15.82,15.82,0,0,1,11.92,5,17.13,17.13,0,0,1,4.76,12.38,19,19,0,0,1-.39,3.94ZM599.78,69H613.9q-1.46-5.19-7-5.19Q601.22,63.85,599.78,69Z"/><path class="cls-7" d="M647.32,65.49h-6.76V77.12a2.33,2.33,0,0,0,1.58,2.49,15.44,15.44,0,0,0,5.18.33v8.93q-9.39,1-13-1.8t-3.61-9.95V65.49h-5.25V56h5.25V49.8l9.85-3V56h6.76Z"/><path class="cls-7" d="M661.8,51.41a5.87,5.87,0,1,1,1.74-4.17A5.69,5.69,0,0,1,661.8,51.41Zm-9.09,37.46V56h9.85V88.87Z"/><path class="cls-7" d="M681.8,79.68h13.07v9.19H668.6V82.31L681,65.23H669.26V56h25V62.6Z"/><path class="cls-7" d="M722.45,56h9.85V88.87h-9.85V85.79q-3.48,4-9.78,4a14.49,14.49,0,0,1-11.1-5A17.56,17.56,0,0,1,697,72.46a17.57,17.57,0,0,1,4.6-12.32,14.49,14.49,0,0,1,11.1-5q6.3,0,9.78,4ZM709,78.3a8.44,8.44,0,0,0,11.3,0,7.91,7.91,0,0,0,2.16-5.84,7.92,7.92,0,0,0-2.16-5.85,8.44,8.44,0,0,0-11.3,0,7.93,7.93,0,0,0-2.17,5.85A7.92,7.92,0,0,0,709,78.3Z"/><path class="cls-7" d="M758.57,65.49h-6.76V77.12a2.32,2.32,0,0,0,1.57,2.49,15.48,15.48,0,0,0,5.19.33v8.93q-9.39,1-13-1.8T742,77.12V65.49H736.7V56H742V49.8l9.85-3V56h6.76Z"/><path class="cls-7" d="M773.05,51.41a5.87,5.87,0,1,1,1.74-4.17A5.69,5.69,0,0,1,773.05,51.41ZM764,88.87V56h9.85V88.87Z"/><path class="cls-7" d="M808.94,84.77a17.41,17.41,0,0,1-29.75-12.31,17.41,17.41,0,1,1,29.75,12.31ZM791.21,78A7.79,7.79,0,0,0,802,78a8.27,8.27,0,0,0,0-11.17,7.79,7.79,0,0,0-10.77,0,8.27,8.27,0,0,0,0,11.17Z"/><path class="cls-7" d="M838.63,55.12a11.71,11.71,0,0,1,8.76,3.61q3.52,3.62,3.52,10V88.87h-9.85V70.16a5.88,5.88,0,0,0-1.61-4.44,5.74,5.74,0,0,0-4.11-1.54,5.88,5.88,0,0,0-4.46,1.71,7,7,0,0,0-1.64,5V88.87h-9.86V56h9.86v3.08C831.21,56.45,834.33,55.12,838.63,55.12Z"/><rect class="cls-1" x="426.1" y="350.53" width="402.72" height="147.96" rx="73.98"/><text class="cls-2" transform="translate(475.49 439.28)">#analy<tspan class="cls-8" x="211.6" y="0">t</tspan><tspan class="cls-9" x="236.22" y="0">i</tspan><tspan class="cls-10" x="253.1" y="0">c</tspan><tspan class="cls-11" x="287.45" y="0">s</tspan></text></g></g></svg>