<svg xmlns="http://www.w3.org/2000/svg" viewBox="0 0 801.51 1521"><defs><style>.cls-1{fill:#fff;stroke:#0061ff;stroke-miterlimit:10;stroke-width:21px;}.cls-2{fill:#0061ff;}</style></defs><title>path_roadmap</title><g id="Ebene_2" data-name="Ebene 2"><g id="Ebene_1-2" data-name="Ebene 1"><line class="cls-1" x1="44" x2="44" y2="1521"/><circle class="cls-2" cx="44.5" cy="428.5" r="43.5"/><circle class="cls-2" cx="43.5" cy="537.5" r="43.5"/><circle class="cls-2" cx="44.5" cy="716.5" r="43.5"/><circle class="cls-2" cx="43.5" cy="827.5" r="43.5"/><circle class="cls-2" cx="44.5" cy="938.5" r="43.5"/><circle class="cls-2" cx="43.5" cy="1092.5" r="43.5"/><circle class="cls-2" cx="43.5" cy="1278.5" r="43.5"/><path d="M152.94,420.94h-7v12a2.4,2.4,0,0,0,1.63,2.58,15.69,15.69,0,0,0,5.37.34v9.25q-9.72,1-13.46-1.87T135.74,433v-12H130.3v-9.79h5.44v-6.46l10.2-3.06v9.52h7Z"/><path d="M182.52,411.15h10.2v34h-10.2V442q-3.6,4.14-10.13,4.14a15,15,0,0,1-11.49-5.2,19.46,19.46,0,0,1,0-25.5,15,15,0,0,1,11.49-5.2q6.53,0,10.13,4.15ZM168.58,434.2a8.73,8.73,0,0,0,11.7,0,9.29,9.29,0,0,0,0-12.1,8.76,8.76,0,0,0-11.7,0,9.29,9.29,0,0,0,0,12.1Z"/><path d="M210.19,417.2a8.36,8.36,0,0,1,3.85-5,12.06,12.06,0,0,1,6.36-1.74V422a10.22,10.22,0,0,0-7,1.26q-3.22,1.88-3.23,6.49v15.37H200v-34h10.19Z"/><path d="M248.89,411.15h9.92v32.3q0,8-5.23,12.14a20,20,0,0,1-12.72,4.11q-11.49,0-16.11-8.22l8.7-5q2.31,4.29,7.75,4.29a8.07,8.07,0,0,0,5.65-1.87,7,7,0,0,0,2-5.41v-3.13q-3.54,4.43-9.93,4.42A15.76,15.76,0,0,1,227,439.68a17.94,17.94,0,0,1,0-24.41A15.77,15.77,0,0,1,239,410.2q6.39,0,9.93,4.42Zm-14.15,22a9.11,9.11,0,0,0,11.83,0,8.19,8.19,0,0,0,0-11.42,9.11,9.11,0,0,0-11.83,0,8.21,8.21,0,0,0,0,11.42Z"/><path d="M275.2,432.23Q277,437,283.36,437a8.44,8.44,0,0,0,6.53-2.58l8.16,4.69q-5,7-14.82,7-8.58,0-13.71-5.1a17.94,17.94,0,0,1,13-30.8,16.41,16.41,0,0,1,12.34,5.13,17.78,17.78,0,0,1,4.93,12.82,19.59,19.59,0,0,1-.41,4.08Zm-.2-7.61h14.62q-1.5-5.37-7.21-5.38C278.47,419.24,276,421,275,424.62Z"/><path d="M324.23,420.94h-7v12a2.4,2.4,0,0,0,1.63,2.58,15.66,15.66,0,0,0,5.37.34v9.25q-9.72,1-13.46-1.87T307,433v-12h-5.44v-9.79H307v-6.46l10.21-3.06v9.52h7Z"/><path d="M372.24,411.15h9.92v32.3q0,8-5.23,12.14a20,20,0,0,1-12.72,4.11q-11.49,0-16.11-8.22l8.7-5q2.31,4.29,7.75,4.29a8.09,8.09,0,0,0,5.65-1.87,7,7,0,0,0,2-5.41v-3.13q-3.54,4.43-9.93,4.42a15.76,15.76,0,0,1-11.94-5.06,17.94,17.94,0,0,1,0-24.41,15.77,15.77,0,0,1,11.94-5.07q6.39,0,9.93,4.42Zm-14.15,22a9.11,9.11,0,0,0,11.83,0,8.19,8.19,0,0,0,0-11.42,9.11,9.11,0,0,0-11.83,0,8.21,8.21,0,0,0,0,11.42Z"/><path d="M399.64,417.2a8.31,8.31,0,0,1,3.84-5,12.12,12.12,0,0,1,6.36-1.74V422a10.18,10.18,0,0,0-7,1.26c-2.16,1.25-3.23,3.41-3.23,6.49v15.37h-10.2v-34h10.2Z"/><path d="M442.48,440.9a18.16,18.16,0,1,1,5.23-12.75A17.44,17.44,0,0,1,442.48,440.9Zm-18.36-7a8,8,0,0,0,11.15,0,8.58,8.58,0,0,0,0-11.56,8.06,8.06,0,0,0-11.15,0,8.55,8.55,0,0,0,0,11.56Z"/><path d="M475.25,411.15h10.2v34h-10.2V442q-3.06,4.14-9.72,4.14a12.13,12.13,0,0,1-9.08-3.74q-3.63-3.74-3.64-10.33V411.15H463v19.38a6.05,6.05,0,0,0,1.67,4.59,5.87,5.87,0,0,0,4.25,1.6,6.09,6.09,0,0,0,4.62-1.77,7.24,7.24,0,0,0,1.7-5.23Z"/><path d="M513.06,410.2a15,15,0,0,1,11.49,5.2,19.46,19.46,0,0,1,0,25.5,15,15,0,0,1-11.49,5.2q-6.52,0-10.13-4.14v16.79h-10.2v-47.6h10.2v3.2Q506.53,410.19,513.06,410.2Zm-7.85,24a8.64,8.64,0,0,0,11.63,0,9.2,9.2,0,0,0,0-12.1,8.67,8.67,0,0,0-11.63,0,9.17,9.17,0,0,0,0,12.1Z"/><path d="M576.37,411.15h10.2v34h-10.2V442q-3.6,4.14-10.13,4.14a15,15,0,0,1-11.5-5.2,19.46,19.46,0,0,1,0-25.5,15,15,0,0,1,11.5-5.2q6.53,0,10.13,4.15ZM562.43,434.2a8.73,8.73,0,0,0,11.7,0,9.29,9.29,0,0,0,0-12.1,8.76,8.76,0,0,0-11.7,0,9.29,9.29,0,0,0,0,12.1Z"/><path d="M613.77,410.2a12.18,12.18,0,0,1,9.08,3.74q3.63,3.74,3.63,10.34v20.87h-10.2V425.77a6.08,6.08,0,0,0-1.66-4.59,5.92,5.92,0,0,0-4.25-1.6,6.13,6.13,0,0,0-4.63,1.77,7.31,7.31,0,0,0-1.7,5.24v18.56h-10.2v-34H604v3.2Q607.1,410.19,613.77,410.2Z"/><path d="M658,411.15h10.2v34H658V442q-3.62,4.14-10.13,4.14a15,15,0,0,1-11.5-5.2,19.46,19.46,0,0,1,0-25.5,15,15,0,0,1,11.5-5.2q6.52,0,10.13,4.15ZM644,434.2a8.72,8.72,0,0,0,11.69,0,9.26,9.26,0,0,0,0-12.1,8.75,8.75,0,0,0-11.69,0,9.26,9.26,0,0,0,0,12.1Z"/><path d="M675.44,445.15V395.51h10.2v49.64Z"/><path d="M714.34,411.15h10.88l-11.63,33q-2.85,8-7.51,11.49t-11.87,3.13v-9.52a9.84,9.84,0,0,0,5.44-1.26,8.62,8.62,0,0,0,3.06-4.38l-13.53-32.44H700.4L708,432Z"/><path d="M736.37,421.08c0,.68.58,1.24,1.73,1.67s2.55.86,4.19,1.29a37.59,37.59,0,0,1,4.89,1.66,9.92,9.92,0,0,1,4.18,3.37A9.6,9.6,0,0,1,753.1,435a9.48,9.48,0,0,1-4.08,8.33A17.29,17.29,0,0,1,739,446.1q-10.74,0-14.62-8.09l8.84-5a5.54,5.54,0,0,0,5.78,4c2.45,0,3.68-.7,3.68-2.11,0-.68-.58-1.24-1.74-1.7a38.94,38.94,0,0,0-4.18-1.32,35.65,35.65,0,0,1-4.9-1.7,10.46,10.46,0,0,1-4.18-3.3,8.78,8.78,0,0,1-1.73-5.51,9.75,9.75,0,0,1,3.84-8.23,15.26,15.26,0,0,1,9.49-2.92,15.87,15.87,0,0,1,7.68,1.87,14.41,14.41,0,0,1,5.58,5.41l-8.71,4.69a5,5,0,0,0-4.55-3C737.32,419.18,736.37,419.81,736.37,421.08Z"/><path d="M767.41,406.36a6.08,6.08,0,1,1,1.8-4.32A5.89,5.89,0,0,1,767.41,406.36ZM758,445.15v-34h10.2v34Z"/><path d="M784.79,421.08c0,.68.57,1.24,1.73,1.67s2.55.86,4.18,1.29a37.72,37.72,0,0,1,4.9,1.66,10,10,0,0,1,4.18,3.37,9.6,9.6,0,0,1,1.73,5.88,9.48,9.48,0,0,1-4.08,8.33,17.26,17.26,0,0,1-10.06,2.82q-10.74,0-14.62-8.09l8.84-5a5.53,5.53,0,0,0,5.78,4c2.45,0,3.67-.7,3.67-2.11,0-.68-.58-1.24-1.73-1.7a39.68,39.68,0,0,0-4.18-1.32,34.75,34.75,0,0,1-4.9-1.7,10.39,10.39,0,0,1-4.18-3.3,8.72,8.72,0,0,1-1.74-5.51,9.74,9.74,0,0,1,3.85-8.23,15.25,15.25,0,0,1,9.48-2.92,15.94,15.94,0,0,1,7.69,1.87,14.32,14.32,0,0,1,5.57,5.41l-8.7,4.69a5,5,0,0,0-4.56-3C785.74,419.18,784.79,419.81,784.79,421.08Z"/><path d="M170.88,519.24a12.16,12.16,0,0,1,9.39,3.84q3.53,3.85,3.53,10.24v20.87H173.6v-20a6.2,6.2,0,0,0-1.25-4.08,4.52,4.52,0,0,0-3.64-1.49,4.75,4.75,0,0,0-3.91,1.7,7.17,7.17,0,0,0-1.4,4.69v19.17H153.2v-20a6.2,6.2,0,0,0-1.25-4.08,4.52,4.52,0,0,0-3.64-1.49,4.75,4.75,0,0,0-3.91,1.7A7.17,7.17,0,0,0,143,535v19.17H132.8v-34H143v3.13q2.79-4.08,9.12-4.08a10,10,0,0,1,8.9,4.49Q164.16,519.25,170.88,519.24Z"/><path d="M215.29,520.19h10.2v34h-10.2V551q-3.61,4.14-10.13,4.15a15,15,0,0,1-11.5-5.21,19.46,19.46,0,0,1,0-25.5,15.07,15.07,0,0,1,11.5-5.2q6.53,0,10.13,4.15Zm-13.94,23.06a8.75,8.75,0,0,0,11.69,0,9.27,9.27,0,0,0,0-12.11,8.75,8.75,0,0,0-11.69,0,9.27,9.27,0,0,0,0,12.11Z"/><path d="M243,526.25a8.37,8.37,0,0,1,3.84-5,12.12,12.12,0,0,1,6.36-1.74v11.56a10.31,10.31,0,0,0-7,1.26c-2.15,1.25-3.23,3.41-3.23,6.5v15.36h-10.2v-34H243Z"/><path d="M290.36,554.19H278.8l-10.88-15v15h-10.2v-47.6h10.2v28.5l10.2-14.9H290l-12.38,17Z"/><path d="M301,541.27q1.75,4.77,8.16,4.76a8.42,8.42,0,0,0,6.52-2.58l8.16,4.69q-5,7-14.82,7-8.57,0-13.7-5.1a17.95,17.95,0,0,1,12.95-30.81,16.37,16.37,0,0,1,12.34,5.14,17.74,17.74,0,0,1,4.93,12.81,19.47,19.47,0,0,1-.4,4.08Zm-.21-7.61h14.62q-1.5-5.37-7.21-5.37Q302.26,528.29,300.76,533.66Z"/><path d="M350,530h-7v12a2.42,2.42,0,0,0,1.63,2.59A16.22,16.22,0,0,0,350,545v9.24q-9.72,1-13.46-1.87T332.79,542V530h-5.44v-9.8h5.44v-6.46l10.2-3.06v9.52h7Z"/><path d="M397.73,520.19h10.2v34h-10.2V551q-3.62,4.14-10.13,4.15a15,15,0,0,1-11.5-5.21,19.46,19.46,0,0,1,0-25.5,15.07,15.07,0,0,1,11.5-5.2q6.52,0,10.13,4.15Zm-13.94,23.06a8.75,8.75,0,0,0,11.69,0,9.27,9.27,0,0,0,0-12.11,8.75,8.75,0,0,0-11.69,0,9.27,9.27,0,0,0,0,12.11Z"/><path d="M435.13,519.24a12.18,12.18,0,0,1,9.08,3.74q3.63,3.75,3.63,10.34v20.87h-10.2V534.81a6.08,6.08,0,0,0-1.66-4.59,5.91,5.91,0,0,0-4.25-1.59,6.16,6.16,0,0,0-4.63,1.76,7.31,7.31,0,0,0-1.7,5.24v18.56H415.2v-34h10.2v3.2Q428.46,519.25,435.13,519.24Z"/><path d="M479.33,520.19h10.2v34h-10.2V551c-2.41,2.76-5.78,4.15-10.14,4.15a15,15,0,0,1-11.49-5.21,19.46,19.46,0,0,1,0-25.5,15.06,15.06,0,0,1,11.49-5.2c4.36,0,7.73,1.39,10.14,4.15Zm-13.94,23.06a8.75,8.75,0,0,0,11.69,0,9.27,9.27,0,0,0,0-12.11,8.75,8.75,0,0,0-11.69,0,9.27,9.27,0,0,0,0,12.11Z"/><path d="M496.8,554.19V504.55H507v49.64Z"/><path d="M535.7,520.19h10.88l-11.63,33q-2.87,8-7.52,11.5t-11.86,3.12v-9.52A9.93,9.93,0,0,0,521,557a8.65,8.65,0,0,0,3.06-4.39l-13.53-32.44h11.22L529.3,541Z"/><path d="M557.73,530.12c0,.68.58,1.24,1.73,1.67s2.55.86,4.19,1.29a37.66,37.66,0,0,1,4.89,1.67,9.9,9.9,0,0,1,4.18,3.36,9.62,9.62,0,0,1,1.74,5.88,9.46,9.46,0,0,1-4.08,8.33,17.22,17.22,0,0,1-10.07,2.83q-10.74,0-14.62-8.1l8.84-5a5.54,5.54,0,0,0,5.78,4c2.45,0,3.68-.7,3.68-2.1,0-.68-.58-1.25-1.74-1.7a36.65,36.65,0,0,0-4.18-1.33,35.65,35.65,0,0,1-4.9-1.7,10.46,10.46,0,0,1-4.18-3.3,8.76,8.76,0,0,1-1.73-5.51,9.74,9.74,0,0,1,3.84-8.22,15.2,15.2,0,0,1,9.49-2.93,16,16,0,0,1,7.68,1.87,14.41,14.41,0,0,1,5.58,5.41l-8.71,4.69a5,5,0,0,0-4.55-3C558.68,528.22,557.73,528.85,557.73,530.12Z"/><path d="M588.77,515.4a6.08,6.08,0,1,1,1.8-4.32A5.89,5.89,0,0,1,588.77,515.4Zm-9.42,38.79v-34h10.2v34Z"/><path d="M606.15,530.12c0,.68.57,1.24,1.73,1.67s2.55.86,4.18,1.29a37.79,37.79,0,0,1,4.9,1.67,10,10,0,0,1,4.18,3.36,9.62,9.62,0,0,1,1.73,5.88,9.46,9.46,0,0,1-4.08,8.33,17.19,17.19,0,0,1-10.06,2.83q-10.74,0-14.62-8.1l8.84-5a5.53,5.53,0,0,0,5.78,4c2.45,0,3.67-.7,3.67-2.1,0-.68-.58-1.25-1.73-1.7a37.31,37.31,0,0,0-4.18-1.33,34.75,34.75,0,0,1-4.9-1.7,10.39,10.39,0,0,1-4.18-3.3,8.7,8.7,0,0,1-1.74-5.51,9.72,9.72,0,0,1,3.85-8.22,15.19,15.19,0,0,1,9.48-2.93,16.05,16.05,0,0,1,7.69,1.87,14.32,14.32,0,0,1,5.57,5.41l-8.7,4.69a5,5,0,0,0-4.56-3C607.1,528.22,606.15,528.85,606.15,530.12Z"/><path d="M132.8,733.19V683.55H143v49.64Z"/><path d="M159.39,720.27q1.77,4.77,8.16,4.76a8.44,8.44,0,0,0,6.53-2.58l8.16,4.69q-5,7-14.82,7-8.58,0-13.71-5.1a18,18,0,0,1,13-30.81A16.38,16.38,0,0,1,179,703.38a17.74,17.74,0,0,1,4.93,12.81,19.45,19.45,0,0,1-.41,4.08Zm-.2-7.61h14.62q-1.5-5.37-7.21-5.37C162.66,707.29,160.18,709.08,159.19,712.66Z"/><path d="M214.13,699.19h9.93v32.3q0,8-5.24,12.14a19.91,19.91,0,0,1-12.71,4.12q-11.49,0-16.12-8.23l8.7-5q2.33,4.28,7.76,4.28a8,8,0,0,0,5.64-1.87,7,7,0,0,0,2-5.41v-3.12q-3.54,4.41-9.93,4.42a15.73,15.73,0,0,1-11.93-5.07,17.92,17.92,0,0,1,0-24.41,15.73,15.73,0,0,1,11.93-5.07q6.39,0,9.93,4.42Zm-14.14,22a9.15,9.15,0,0,0,11.83,0,8.22,8.22,0,0,0,0-11.43,9.15,9.15,0,0,0-11.83,0,8.2,8.2,0,0,0,0,11.43Z"/><path d="M256,699.19h10.2v34H256V730q-3.61,4.14-10.13,4.15a15,15,0,0,1-11.5-5.21,19.46,19.46,0,0,1,0-25.5,15.07,15.07,0,0,1,11.5-5.2q6.53,0,10.13,4.15Zm-13.94,23.06a8.75,8.75,0,0,0,11.69,0,9.27,9.27,0,0,0,0-12.11,8.75,8.75,0,0,0-11.69,0,9.27,9.27,0,0,0,0,12.11Z"/><path d="M273.49,733.19V683.55h10.2v49.64Z"/><path d="M317.18,694.4a6.08,6.08,0,1,1,1.8-4.32A5.89,5.89,0,0,1,317.18,694.4Zm-9.42,38.79v-34H318v34Z"/><path d="M334.56,709.12c0,.68.57,1.24,1.73,1.67s2.55.86,4.18,1.29a37.79,37.79,0,0,1,4.9,1.67,10,10,0,0,1,4.18,3.36,9.62,9.62,0,0,1,1.74,5.88,9.49,9.49,0,0,1-4.08,8.33,17.22,17.22,0,0,1-10.07,2.83q-10.74,0-14.62-8.1l8.84-5a5.53,5.53,0,0,0,5.78,4c2.45,0,3.67-.7,3.67-2.1,0-.68-.57-1.25-1.73-1.7a37.31,37.31,0,0,0-4.18-1.33,34.75,34.75,0,0,1-4.9-1.7,10.39,10.39,0,0,1-4.18-3.3,8.7,8.7,0,0,1-1.74-5.51,9.74,9.74,0,0,1,3.85-8.22,15.19,15.19,0,0,1,9.48-2.93,16,16,0,0,1,7.69,1.87,14.32,14.32,0,0,1,5.57,5.41l-8.7,4.69a5,5,0,0,0-4.56-3C335.51,707.22,334.56,707.85,334.56,709.12Z"/><path d="M364.14,709.12c0,.68.57,1.24,1.73,1.67s2.55.86,4.18,1.29a37.79,37.79,0,0,1,4.9,1.67,10,10,0,0,1,4.18,3.36,9.62,9.62,0,0,1,1.73,5.88,9.46,9.46,0,0,1-4.08,8.33,17.19,17.19,0,0,1-10.06,2.83q-10.74,0-14.62-8.1l8.84-5a5.53,5.53,0,0,0,5.78,4c2.45,0,3.67-.7,3.67-2.1,0-.68-.58-1.25-1.73-1.7a37.31,37.31,0,0,0-4.18-1.33,34.75,34.75,0,0,1-4.9-1.7,10.39,10.39,0,0,1-4.18-3.3,8.7,8.7,0,0,1-1.74-5.51,9.72,9.72,0,0,1,3.85-8.22,15.19,15.19,0,0,1,9.48-2.93,16.05,16.05,0,0,1,7.69,1.87,14.32,14.32,0,0,1,5.57,5.41l-8.7,4.69a5,5,0,0,0-4.56-3C365.09,707.22,364.14,707.85,364.14,709.12Z"/><path d="M407.72,699.19h10.2v34h-10.2V730q-3.06,4.14-9.72,4.15a12.17,12.17,0,0,1-9.08-3.74q-3.63-3.75-3.63-10.34V699.19h10.19v19.38a6.05,6.05,0,0,0,1.67,4.59,5.87,5.87,0,0,0,4.25,1.6A6.09,6.09,0,0,0,406,723a7.22,7.22,0,0,0,1.7-5.23Z"/><path d="M434.31,720.27q1.77,4.77,8.16,4.76a8.44,8.44,0,0,0,6.53-2.58l8.16,4.69q-5,7-14.82,7-8.58,0-13.71-5.1a18,18,0,0,1,13-30.81,16.38,16.38,0,0,1,12.34,5.14,17.74,17.74,0,0,1,4.93,12.81,19.45,19.45,0,0,1-.41,4.08Zm-.2-7.61h14.62q-1.5-5.37-7.21-5.37C437.58,707.29,435.1,709.08,434.11,712.66Z"/><path d="M472.73,709.12c0,.68.58,1.24,1.74,1.67s2.55.86,4.18,1.29a37.66,37.66,0,0,1,4.89,1.67,9.92,9.92,0,0,1,4.19,3.36,9.69,9.69,0,0,1,1.73,5.88,9.46,9.46,0,0,1-4.08,8.33,17.21,17.21,0,0,1-10.06,2.83q-10.76,0-14.62-8.1l8.84-5a5.53,5.53,0,0,0,5.78,4c2.44,0,3.67-.7,3.67-2.1,0-.68-.58-1.25-1.74-1.7a36.65,36.65,0,0,0-4.18-1.33,35.07,35.07,0,0,1-4.89-1.7,10.42,10.42,0,0,1-4.19-3.3,8.76,8.76,0,0,1-1.73-5.51,9.74,9.74,0,0,1,3.84-8.22,15.2,15.2,0,0,1,9.49-2.93,16,16,0,0,1,7.68,1.87,14.41,14.41,0,0,1,5.58,5.41l-8.71,4.69a5,5,0,0,0-4.55-3C473.68,707.22,472.73,707.85,472.73,709.12Z"/><path d="M170.88,809.24a12.16,12.16,0,0,1,9.39,3.84q3.53,3.85,3.53,10.24v20.87H173.6v-20a6.2,6.2,0,0,0-1.25-4.08,4.52,4.52,0,0,0-3.64-1.49,4.75,4.75,0,0,0-3.91,1.7,7.17,7.17,0,0,0-1.4,4.69v19.17H153.2v-20a6.2,6.2,0,0,0-1.25-4.08,4.52,4.52,0,0,0-3.64-1.49,4.75,4.75,0,0,0-3.91,1.7A7.17,7.17,0,0,0,143,825v19.17H132.8v-34H143v3.13q2.79-4.08,9.12-4.08a10,10,0,0,1,8.9,4.49Q164.16,809.25,170.88,809.24Z"/><path d="M219.71,839.94a18.29,18.29,0,0,1-25.57,0,18.13,18.13,0,0,1,0-25.5,18.32,18.32,0,0,1,25.57,0,18.16,18.16,0,0,1,0,25.5Zm-18.36-7a8,8,0,0,0,11.15,0,8.58,8.58,0,0,0,0-11.56,8.06,8.06,0,0,0-11.15,0,8.55,8.55,0,0,0,0,11.56Z"/><path d="M250.44,809.24a12.15,12.15,0,0,1,9.08,3.74q3.64,3.75,3.64,10.34v20.87H253V824.81a6.08,6.08,0,0,0-1.67-4.59,5.89,5.89,0,0,0-4.25-1.59,6.13,6.13,0,0,0-4.62,1.76,7.31,7.31,0,0,0-1.7,5.24v18.56h-10.2v-34h10.2v3.2Q243.78,809.25,250.44,809.24Z"/><path d="M279.07,831.27q1.77,4.77,8.16,4.76a8.44,8.44,0,0,0,6.53-2.58l8.16,4.69q-5,7-14.83,7-8.56,0-13.7-5.1a18,18,0,0,1,13-30.81,16.38,16.38,0,0,1,12.34,5.14,17.74,17.74,0,0,1,4.93,12.81,19.45,19.45,0,0,1-.41,4.08Zm-.2-7.61h14.62q-1.5-5.37-7.21-5.37Q280.36,818.29,278.87,823.66Z"/><path d="M328.1,820h-7v12a2.43,2.43,0,0,0,1.64,2.59,16.17,16.17,0,0,0,5.37.34v9.24c-6.49.68-11,.06-13.47-1.87s-3.74-5.36-3.74-10.3V820h-5.44v-9.8h5.44v-6.46l10.2-3.06v9.52h7Z"/><path d="M343.09,805.4a6.08,6.08,0,1,1,1.8-4.32A5.89,5.89,0,0,1,343.09,805.4Zm-9.42,38.79v-34h10.2v34Z"/><path d="M363.8,834.67h13.53v9.52h-27.2v-6.8L363,819.71H350.81v-9.52h25.84V817Z"/><path d="M405.89,810.19h10.2v34h-10.2V841q-3.61,4.14-10.13,4.15a15,15,0,0,1-11.5-5.21,19.46,19.46,0,0,1,0-25.5,15.07,15.07,0,0,1,11.5-5.2q6.53,0,10.13,4.15ZM392,833.25a8.75,8.75,0,0,0,11.69,0,9.27,9.27,0,0,0,0-12.11,8.75,8.75,0,0,0-11.69,0,9.27,9.27,0,0,0,0,12.11Z"/><path d="M443.29,820h-7v12a2.43,2.43,0,0,0,1.64,2.59,16.17,16.17,0,0,0,5.37.34v9.24c-6.49.68-11,.06-13.47-1.87s-3.74-5.36-3.74-10.3V820h-5.44v-9.8h5.44v-6.46l10.2-3.06v9.52h7Z"/><path d="M458.28,805.4a6.08,6.08,0,1,1,1.8-4.32A5.89,5.89,0,0,1,458.28,805.4Zm-9.42,38.79v-34h10.2v34Z"/><path d="M495.44,839.94a18.29,18.29,0,0,1-25.57,0,18.16,18.16,0,0,1,0-25.5,18.32,18.32,0,0,1,25.57,0,18.13,18.13,0,0,1,0,25.5Zm-18.36-7a8,8,0,0,0,11.15,0,8.55,8.55,0,0,0,0-11.56,8.06,8.06,0,0,0-11.15,0,8.58,8.58,0,0,0,0,11.56Z"/><path d="M526.18,809.24a12.18,12.18,0,0,1,9.08,3.74q3.63,3.75,3.63,10.34v20.87h-10.2V824.81a6.08,6.08,0,0,0-1.66-4.59,5.91,5.91,0,0,0-4.25-1.59,6.16,6.16,0,0,0-4.63,1.76,7.31,7.31,0,0,0-1.7,5.24v18.56h-10.2v-34h10.2v3.2Q519.51,809.25,526.18,809.24Z"/><path d="M152.73,920.24a12.18,12.18,0,0,1,9.08,3.74q3.63,3.75,3.63,10.34v20.87h-10.2V935.81a6.08,6.08,0,0,0-1.66-4.59,5.91,5.91,0,0,0-4.25-1.59,6.16,6.16,0,0,0-4.63,1.76,7.31,7.31,0,0,0-1.7,5.24v18.56H132.8v-47.6H143v16.8Q146.06,920.25,152.73,920.24Z"/><path d="M201.35,950.94a18.29,18.29,0,0,1-25.57,0,18.13,18.13,0,0,1,0-25.5,18.32,18.32,0,0,1,25.57,0,18.16,18.16,0,0,1,0,25.5ZM183,944a8,8,0,0,0,11.15,0,8.58,8.58,0,0,0,0-11.56,8.06,8.06,0,0,0-11.15,0A8.55,8.55,0,0,0,183,944Z"/><path d="M221.13,931.12c0,.68.58,1.24,1.74,1.67s2.55.86,4.18,1.29a37.79,37.79,0,0,1,4.9,1.67,10,10,0,0,1,4.18,3.36,9.62,9.62,0,0,1,1.73,5.88,9.46,9.46,0,0,1-4.08,8.33,17.19,17.19,0,0,1-10.06,2.83q-10.74,0-14.62-8.1l8.84-5a5.53,5.53,0,0,0,5.78,4c2.45,0,3.67-.7,3.67-2.1,0-.68-.58-1.25-1.73-1.7a36.88,36.88,0,0,0-4.19-1.33,35.07,35.07,0,0,1-4.89-1.7,10.39,10.39,0,0,1-4.18-3.3,8.7,8.7,0,0,1-1.74-5.51,9.74,9.74,0,0,1,3.84-8.22,15.24,15.24,0,0,1,9.49-2.93,16,16,0,0,1,7.68,1.87,14.28,14.28,0,0,1,5.58,5.41l-8.7,4.69a5,5,0,0,0-4.56-3C222.09,929.22,221.13,929.85,221.13,931.12Z"/><path d="M261.66,931h-7v12a2.42,2.42,0,0,0,1.63,2.59,16.22,16.22,0,0,0,5.37.34v9.24q-9.72,1-13.46-1.87T244.46,943V931H239v-9.8h5.44v-6.46l10.2-3.06v9.52h7Z"/><path d="M276.66,916.4a6.08,6.08,0,1,1,1.8-4.32A5.89,5.89,0,0,1,276.66,916.4Zm-9.42,38.79v-34h10.2v34Z"/><path d="M304.64,920.24a12.18,12.18,0,0,1,9.08,3.74q3.63,3.75,3.63,10.34v20.87h-10.2V935.81a6.08,6.08,0,0,0-1.66-4.59,5.91,5.91,0,0,0-4.25-1.59,6.16,6.16,0,0,0-4.63,1.76,7.31,7.31,0,0,0-1.7,5.24v18.56h-10.2v-34h10.2v3.2Q298,920.25,304.64,920.24Z"/><path d="M349.11,921.19H359v32.3q0,8-5.24,12.14a19.91,19.91,0,0,1-12.71,4.12q-11.5,0-16.12-8.23l8.7-5q2.31,4.28,7.76,4.28a8,8,0,0,0,5.64-1.87,7,7,0,0,0,2-5.41v-3.12q-3.54,4.41-9.93,4.42a15.73,15.73,0,0,1-11.93-5.07,17.92,17.92,0,0,1,0-24.41,15.73,15.73,0,0,1,11.93-5.07q6.39,0,9.93,4.42Zm-14.14,22a9.15,9.15,0,0,0,11.83,0,8.22,8.22,0,0,0,0-11.43,9.15,9.15,0,0,0-11.83,0,8.2,8.2,0,0,0,0,11.43Z"/><path d="M161.88,1075.24a12.16,12.16,0,0,1,9.39,3.84q3.53,3.86,3.53,10.24v20.87H164.6v-20a6.2,6.2,0,0,0-1.25-4.08,4.52,4.52,0,0,0-3.64-1.49,4.75,4.75,0,0,0-3.91,1.7,7.17,7.17,0,0,0-1.4,4.69v19.17H144.2v-20a6.2,6.2,0,0,0-1.25-4.08,4.52,4.52,0,0,0-3.64-1.49,4.75,4.75,0,0,0-3.91,1.7A7.17,7.17,0,0,0,134,1091v19.17H123.8v-34H134v3.13q2.79-4.08,9.12-4.08a10,10,0,0,1,8.9,4.49Q155.16,1075.24,161.88,1075.24Z"/><path d="M206.29,1076.19h10.2v34h-10.2V1107q-3.61,4.14-10.13,4.15a15,15,0,0,1-11.5-5.21,19.46,19.46,0,0,1,0-25.5,15.07,15.07,0,0,1,11.5-5.2q6.53,0,10.13,4.15Zm-13.94,23.06a8.75,8.75,0,0,0,11.69,0,9.27,9.27,0,0,0,0-12.11,8.75,8.75,0,0,0-11.69,0,9.27,9.27,0,0,0,0,12.11Z"/><path d="M234,1082.25a8.37,8.37,0,0,1,3.84-5,12.12,12.12,0,0,1,6.36-1.74v11.56a10.31,10.31,0,0,0-7,1.26c-2.15,1.25-3.23,3.41-3.23,6.5v15.36h-10.2v-34H234Z"/><path d="M281.36,1110.19H269.8l-10.88-15v15h-10.2v-47.6h10.2v28.5l10.2-14.9H281l-12.38,17Z"/><path d="M292,1097.27q1.75,4.77,8.16,4.76a8.42,8.42,0,0,0,6.52-2.58l8.16,4.69q-5,7-14.82,7-8.57,0-13.7-5.1a17.95,17.95,0,0,1,12.95-30.81,16.37,16.37,0,0,1,12.34,5.14,17.74,17.74,0,0,1,4.93,12.81,19.47,19.47,0,0,1-.4,4.08Zm-.21-7.61h14.62q-1.5-5.37-7.21-5.37Q293.26,1084.29,291.76,1089.66Z"/><path d="M341,1086h-7v12a2.42,2.42,0,0,0,1.63,2.59,16.22,16.22,0,0,0,5.37.34v9.24q-9.72,1-13.46-1.87t-3.74-10.3v-12h-5.44v-9.8h5.44v-6.46l10.2-3.06v9.52h7Z"/><path d="M356,1071.4a6.08,6.08,0,1,1,1.8-4.32A5.92,5.92,0,0,1,356,1071.4Zm-9.42,38.79v-34h10.2v34Z"/><path d="M384,1075.24a12.18,12.18,0,0,1,9.08,3.74q3.63,3.75,3.63,10.34v20.87h-10.2v-19.38a6.08,6.08,0,0,0-1.66-4.59,5.91,5.91,0,0,0-4.25-1.59,6.16,6.16,0,0,0-4.63,1.76,7.31,7.31,0,0,0-1.7,5.24v18.56H364v-34h10.2v3.2Q377.3,1075.25,384,1075.24Z"/><path d="M428.44,1076.19h9.93v32.3q0,8-5.24,12.14a19.91,19.91,0,0,1-12.71,4.12q-11.51,0-16.12-8.23l8.7-5q2.31,4.27,7.76,4.28a8,8,0,0,0,5.64-1.87,7,7,0,0,0,2-5.41v-3.12q-3.54,4.41-9.93,4.42a15.73,15.73,0,0,1-11.93-5.07,17.92,17.92,0,0,1,0-24.41,15.73,15.73,0,0,1,11.93-5.07q6.39,0,9.93,4.42Zm-14.15,22a9.16,9.16,0,0,0,11.84,0,8.22,8.22,0,0,0,0-11.43,9.16,9.16,0,0,0-11.84,0,8.22,8.22,0,0,0,0,11.43Z"/><path d="M142.5,1256.5q-6.31-.54-6.32,4.76h6.32v9.79h-6.32v24.21H126v-24.21h-4.56v-9.79H126q0-7.35,4.15-11.19t12.37-3.36Z"/><path d="M174.12,1291a18.13,18.13,0,1,1,5.24-12.75A17.43,17.43,0,0,1,174.12,1291Zm-18.36-7a8.07,8.07,0,0,0,11.16,0,8.58,8.58,0,0,0,0-11.56,8,8,0,0,0-11.16,0,8.58,8.58,0,0,0,0,11.56Z"/><path d="M184.93,1295.26v-49.64h10.2v49.64Z"/><path d="M202.41,1295.26v-49.64h10.2v49.64Z"/><path d="M249,1291a18.13,18.13,0,1,1,5.24-12.75A17.43,17.43,0,0,1,249,1291Zm-18.36-7a8.06,8.06,0,0,0,11.15,0,8.55,8.55,0,0,0,0-11.56,8,8,0,0,0-11.15,0,8.58,8.58,0,0,0,0,11.56Z"/><path d="M295.84,1261.26h10.88l-10.88,34h-9.52l-5.44-18.16-5.44,18.16h-9.52l-10.88-34h10.88l4.9,18.22,5.3-18.22h9.52l5.31,18.22Z"/><path d="M309.58,1279.82V1270h25.84v9.79Z"/><path d="M365,1261.26h10.2v34H365v-3.2q-3.06,4.15-9.73,4.15a12.14,12.14,0,0,1-9.07-3.74q-3.65-3.73-3.64-10.34v-20.87h10.2v19.38a6.08,6.08,0,0,0,1.66,4.59,5.92,5.92,0,0,0,4.25,1.6,6.13,6.13,0,0,0,4.63-1.77,7.31,7.31,0,0,0,1.7-5.24Z"/><path d="M402.81,1260.31a15,15,0,0,1,11.49,5.2,19.46,19.46,0,0,1,0,25.5,15,15,0,0,1-11.49,5.2c-4.36,0-7.73-1.38-10.14-4.15v16.8h-10.2v-47.6h10.2v3.2C395.08,1261.69,398.45,1260.31,402.81,1260.31Zm-7.86,24a8.67,8.67,0,0,0,11.63,0,9.17,9.17,0,0,0,0-12.1,8.64,8.64,0,0,0-11.63,0,9.17,9.17,0,0,0,0,12.1Z"/><circle class="cls-2" cx="43.5" cy="183.5" r="43.5"/><path d="M162.57,154.08h10.2v47.6h-10.2v-3.19q-3.6,4.14-10.13,4.15A15,15,0,0,1,141,197.43a19.46,19.46,0,0,1,0-25.5,15,15,0,0,1,11.49-5.2q6.52,0,10.13,4.15Zm-13.94,36.66a8.76,8.76,0,0,0,11.7,0,9.3,9.3,0,0,0,0-12.11,8.76,8.76,0,0,0-11.7,0,9.3,9.3,0,0,0,0,12.11Z"/><path d="M189.16,188.76q1.77,4.77,8.16,4.76a8.46,8.46,0,0,0,6.53-2.58l8.16,4.69q-5,7-14.83,7-8.56,0-13.7-5.1a17.95,17.95,0,0,1,13-30.81,16.38,16.38,0,0,1,12.34,5.14,17.78,17.78,0,0,1,4.93,12.81,19.52,19.52,0,0,1-.41,4.08Zm-.2-7.61h14.62q-1.5-5.37-7.21-5.37Q190.45,175.78,189,181.15Z"/><path d="M239.62,167.68H250.9l-12.58,34H226.76l-12.58-34h11.29l7.07,21.56Z"/><path d="M262.19,188.76q1.77,4.77,8.16,4.76a8.44,8.44,0,0,0,6.53-2.58l8.16,4.69q-5,7-14.82,7-8.58,0-13.71-5.1a18,18,0,0,1,13-30.81,16.38,16.38,0,0,1,12.34,5.14,17.74,17.74,0,0,1,4.93,12.81,19.52,19.52,0,0,1-.41,4.08Zm-.2-7.61h14.62q-1.5-5.37-7.21-5.37Q263.49,175.78,262,181.15Z"/><path d="M292.32,201.68V152h10.2v49.64Z"/><path d="M338.9,197.43a18.29,18.29,0,0,1-25.57,0,18.13,18.13,0,0,1,0-25.5,18.32,18.32,0,0,1,25.57,0,18.16,18.16,0,0,1,0,25.5Zm-18.37-7a8,8,0,0,0,11.16,0,8.58,8.58,0,0,0,0-11.56,8.07,8.07,0,0,0-11.16,0,8.58,8.58,0,0,0,0,11.56Z"/><path d="M370,166.73a15,15,0,0,1,11.49,5.2,19.46,19.46,0,0,1,0,25.5A15,15,0,0,1,370,202.64q-6.53,0-10.13-4.15v16.79h-10.2v-47.6h10.2v3.2Q363.51,166.74,370,166.73Zm-7.86,24a8.67,8.67,0,0,0,11.63,0,9.18,9.18,0,0,0,0-12.11,8.67,8.67,0,0,0-11.63,0,9.21,9.21,0,0,0,0,12.11Z"/><path d="M429.94,166.73a12.16,12.16,0,0,1,9.39,3.84q3.54,3.85,3.54,10.24v20.87h-10.2v-20a6.14,6.14,0,0,0-1.26-4.08,4.51,4.51,0,0,0-3.64-1.49,4.75,4.75,0,0,0-3.91,1.7,7.17,7.17,0,0,0-1.4,4.69v19.17H412.27v-20a6.14,6.14,0,0,0-1.26-4.08,4.51,4.51,0,0,0-3.64-1.49,4.75,4.75,0,0,0-3.91,1.7,7.17,7.17,0,0,0-1.4,4.69v19.17H391.87v-34h10.19v3.13q2.79-4.08,9.12-4.08a10,10,0,0,1,8.9,4.49Q423.22,166.74,429.94,166.73Z"/><path d="M458.78,188.76q1.77,4.77,8.16,4.76a8.46,8.46,0,0,0,6.53-2.58l8.16,4.69q-5,7-14.83,7-8.57,0-13.7-5.1a17.95,17.95,0,0,1,12.95-30.81,16.4,16.4,0,0,1,12.35,5.14,17.78,17.78,0,0,1,4.93,12.81,19.52,19.52,0,0,1-.41,4.08Zm-.21-7.61h14.62c-1-3.58-3.4-5.37-7.2-5.37S459.57,177.57,458.57,181.15Z"/><path d="M508.82,166.73a12.15,12.15,0,0,1,9.08,3.74q3.65,3.74,3.64,10.34v20.87h-10.2V182.3a6,6,0,0,0-1.67-4.59,5.89,5.89,0,0,0-4.25-1.59,6.14,6.14,0,0,0-4.62,1.76,7.31,7.31,0,0,0-1.7,5.24v18.56H488.9v-34h10.2v3.2Q502.16,166.74,508.82,166.73Z"/><path d="M548.26,177.48h-7v12a2.42,2.42,0,0,0,1.63,2.59,16.22,16.22,0,0,0,5.37.34v9.24q-9.72,1-13.46-1.87t-3.74-10.3v-12h-5.44v-9.8h5.44v-6.46l10.2-3.06v9.52h7Z"/></g></g></svg>