<svg xmlns="http://www.w3.org/2000/svg" viewBox="0 0 1441 1332"><defs><style>.cls-1{fill:#fff;stroke:#0061ff;stroke-miterlimit:10;stroke-width:21px;}.cls-2{fill:#0061ff;}.cls-19,.cls-3,.cls-8{font-size:68px;font-family:Gilroy-ExtraBold, Gilroy;font-weight:800;}.cls-14,.cls-3{letter-spacing:-0.02em;}.cls-4,.cls-8{letter-spacing:0em;}.cls-5{letter-spacing:-0.02em;}.cls-6{letter-spacing:-0.03em;}.cls-7{letter-spacing:-0.01em;}.cls-19,.cls-9{letter-spacing:-0.02em;}.cls-10{letter-spacing:-0.03em;}.cls-11{letter-spacing:0em;}.cls-12{letter-spacing:-0.03em;}.cls-13{letter-spacing:-0.01em;}.cls-15{letter-spacing:-0.01em;}.cls-16{letter-spacing:0em;}.cls-17{letter-spacing:-0.02em;}.cls-18{letter-spacing:-0.01em;}</style></defs><title>roadmap_1</title><g id="Ebene_2" data-name="Ebene 2"><g id="Ebene_1-2" data-name="Ebene 1"><line class="cls-1" x1="44" x2="44" y2="1332"/><circle class="cls-2" cx="44.5" cy="239.5" r="43.5"/><circle class="cls-2" cx="43.5" cy="348.5" r="43.5"/><circle class="cls-2" cx="44.5" cy="527.5" r="43.5"/><circle class="cls-2" cx="43.5" cy="638.5" r="43.5"/><circle class="cls-2" cx="44.5" cy="749.5" r="43.5"/><circle class="cls-2" cx="43.5" cy="903.5" r="43.5"/><circle class="cls-2" cx="43.5" cy="1089.5" r="43.5"/><text class="cls-3" transform="translate(129.28 256.15)">t<tspan class="cls-4" x="24.82" y="0">a</tspan><tspan class="cls-5" x="66.98" y="0">r</tspan><tspan class="cls-4" x="90.91" y="0">g</tspan><tspan class="cls-5" x="133.07" y="0">e</tspan><tspan class="cls-4" x="171.29" y="0">t g</tspan><tspan class="cls-5" x="256.42" y="0">r</tspan><tspan class="cls-4" x="280.36" y="0">oup anal</tspan><tspan class="cls-6" x="559.9" y="0">y</tspan><tspan class="cls-7" x="593.7" y="0">si</tspan><tspan class="cls-4" x="642.11" y="0">s</tspan></text><text class="cls-8" transform="translate(129.06 365.19)">mar<tspan class="cls-6" x="124.92" y="0">k</tspan><tspan class="cls-9" x="159.05" y="0">e</tspan><tspan x="197.27" y="0">t anal</tspan><tspan class="cls-10" x="381.47" y="0">y</tspan><tspan class="cls-7" x="415.27" y="0">si</tspan><tspan x="463.69" y="0">s</tspan></text><text class="cls-8" transform="translate(129.06 544.19)">l<tspan class="cls-7" x="17.48" y="0">e</tspan><tspan class="cls-11" x="56.37" y="0">gal </tspan><tspan class="cls-7" x="174.96" y="0">i</tspan><tspan class="cls-12" x="192.1" y="0">s</tspan><tspan class="cls-13" x="221.68" y="0">s</tspan><tspan x="252.96" y="0">u</tspan><tspan class="cls-14" x="292.4" y="0">e</tspan><tspan class="cls-11" x="330.27" y="0">s</tspan></text><text class="cls-8" transform="translate(129.06 655.19)">mon<tspan class="cls-9" x="137.16" y="0">e</tspan><tspan class="cls-15" x="175.37" y="0">t</tspan><tspan x="200.87" y="0">i</tspan><tspan class="cls-6" x="218.34" y="0">z</tspan><tspan class="cls-16" x="248.4" y="0">a</tspan><tspan class="cls-15" x="290.56" y="0">t</tspan><tspan x="316.06" y="0">ion</tspan></text><text class="cls-8" transform="translate(129.06 766.19)">h<tspan class="cls-15" x="39.44" y="0">o</tspan><tspan class="cls-17" x="78.68" y="0">s</tspan><tspan class="cls-18" x="108.94" y="0">t</tspan><tspan x="134.44" y="0">ing</tspan></text><text class="cls-8" transform="translate(120.06 921.19)">mar<tspan class="cls-6" x="124.92" y="0">k</tspan><tspan class="cls-9" x="159.05" y="0">e</tspan><tspan class="cls-15" x="197.27" y="0">t</tspan><tspan x="222.76" y="0">ing</tspan></text><text class="cls-19" transform="translate(120.06 1106.26)">f<tspan class="cls-4" x="21.21" y="0">oll</tspan><tspan class="cls-14" x="96.08" y="0">ow</tspan><tspan class="cls-4" x="185.43" y="0">-up</tspan></text></g></g></svg>