<svg xmlns="http://www.w3.org/2000/svg" viewBox="0 0 1494.02 1258.38"><defs><style>.cls-1,.cls-7{fill:#0061ff;}.cls-1,.cls-2{stroke:#000;stroke-miterlimit:10;stroke-width:10px;}.cls-2{fill:#fff;}.cls-3{fill:#fb0;}.cls-4{fill:#f4d700;}.cls-5{fill:#3f5aff;}.cls-6{fill:#1db954;}.cls-8{fill:#94e8ff;}</style></defs><title>rocket</title><g id="Ebene_2" data-name="Ebene 2"><g id="Ebene_1-2" data-name="Ebene 1"><path class="cls-1" d="M1489.52,411.05c-112.9,232-392.46,328.45-624.4,215.54S536.67,234.13,649.58,2.19"/><circle class="cls-2" cx="711.22" cy="181.22" r="77.39"/><circle class="cls-2" cx="932.79" cy="284.86" r="62.19"/><circle class="cls-2" cx="1222.53" cy="486.16" r="89.36"/><circle class="cls-2" cx="808.27" cy="456.8" r="45.02"/><circle class="cls-2" cx="978.14" cy="507.83" r="67.5"/><g id="Ebene_1-2-2" data-name="Ebene 1-2"><path class="cls-3" d="M218.9,1150.78c7.73-10,34.82-45.21,22.71-76.82-3-7.86-17.42-21.35-21.14-25-4.36-2.92-19.66-13.66-28-15.09-33.34-5.73-62.57,27.7-70.92,37.23-41.82,47.86-30,116.84-27.08,131.77l-.16.2h.19a1.87,1.87,0,0,0,.09.41l.32-.41C110.14,1203,180.14,1201.11,218.9,1150.78Z"/><path class="cls-4" d="M218.48,1129.21c6.14-8,27.65-35.91,18-61-2.39-6.25-13.84-17-16.79-19.9-3.47-2.33-15.62-10.85-22.22-12-26.49-4.55-49.7,22-56.33,29.57-33.21,38-23.85,92.81-21.56,104.67l-.13.15h.17a.79.79,0,0,0,.06.32l.27-.32C132.08,1170.64,187.68,1169.2,218.48,1129.21Z"/><rect class="cls-5" x="210.65" y="966.81" width="5.28" height="175.12" transform="translate(-737.01 550.28) rotate(-50.62)"/><path class="cls-6" d="M0,1025.07a243.32,243.32,0,0,1,147.83-28.32l32.33-50.28a200.27,200.27,0,0,0-67.9,4.91C50.53,966.8,13.64,1008,0,1025.07"/><path class="cls-6" d="M283.73,1258.38a244.79,244.79,0,0,0,11.14-85.51,243.16,243.16,0,0,0-12.18-65l43-41.55a200.51,200.51,0,0,1,8.4,67.59c-3.1,63.59-36.32,107.78-50.41,124.47"/><path class="cls-7" d="M495.59,713.83c-27.4-.89-128.07-.87-220.1,72.31C196.43,849,155,968.1,146.94,996.84l135.81,111.48c26.57-13.5,138.66-74.79,185-164.61,53.89-104.54,34.25-203.26,28-230"/><path class="cls-6" d="M496,713.86c.77,3.34,1.75,7.8,2.78,13.25s2.09,11.92,3,19.24,1.73,15.52,2.24,24.45.44,28.86.44,28.86l-2.37,32.56L378.61,731c10.88-3.56,31.43-8.62,31.43-8.62s19.54-3.93,28.4-5.18,17-2,24.41-2.56,13.91-.76,19.46-.83,10.12,0,13.54.15"/><circle class="cls-5" cx="386.88" cy="846.65" r="53.76"/><circle class="cls-8" cx="386.87" cy="846.53" r="41.94"/><path class="cls-6" d="M258.53,1005.11c-19.69,9.91-50.66,26.68-83.56,66.69-21.8,26.49-25.68,57.54-33.09,75.44,16.17-10.55,43-22.77,65.06-49C240.25,1058.47,252.35,1026.31,258.53,1005.11Z"/></g></g></g></svg>