<svg xmlns="http://www.w3.org/2000/svg" viewBox="0 0 1577.5 1468.19"><defs><style>.cls-1,.cls-4{fill:#0061ff;}.cls-1,.cls-2{stroke:#000;stroke-width:10px;}.cls-1,.cls-2,.cls-3{stroke-miterlimit:10;}.cls-2,.cls-3{fill:#fff;}.cls-3{stroke:#0061ff;stroke-width:21px;}.cls-10,.cls-21,.cls-5{font-size:68px;font-family:Gilroy-ExtraBold, Gilroy;font-weight:800;}.cls-16,.cls-5{letter-spacing:-0.02em;}.cls-10,.cls-6{letter-spacing:0em;}.cls-7{letter-spacing:-0.02em;}.cls-8{letter-spacing:-0.03em;}.cls-9{letter-spacing:-0.01em;}.cls-11,.cls-21{letter-spacing:-0.02em;}.cls-12{letter-spacing:-0.03em;}.cls-13{letter-spacing:0em;}.cls-14{letter-spacing:-0.03em;}.cls-15{letter-spacing:-0.01em;}.cls-17{letter-spacing:-0.01em;}.cls-18{letter-spacing:0em;}.cls-19{letter-spacing:-0.02em;}.cls-20{letter-spacing:-0.01em;}</style></defs><title>steps</title><g id="Ebene_2" data-name="Ebene 2"><g id="Ebene_1-2" data-name="Ebene 1"><path class="cls-1" d="M1573,282.71c-77.46,159.13-269.26,225.34-428.4,147.88S919.26,161.32,996.72,2.19"/><circle class="cls-2" cx="1029.01" cy="125.02" r="53.09"/><circle class="cls-2" cx="1181.03" cy="196.13" r="42.67"/><circle class="cls-2" cx="1379.82" cy="334.24" r="61.31"/><circle class="cls-2" cx="1095.6" cy="314.09" r="30.89"/><circle class="cls-2" cx="1212.15" cy="349.11" r="46.31"/><line class="cls-3" x1="44" y1="136.19" x2="44" y2="1468.19"/><circle class="cls-4" cx="44.5" cy="375.69" r="43.5"/><circle class="cls-4" cx="43.5" cy="484.69" r="43.5"/><circle class="cls-4" cx="44.5" cy="663.69" r="43.5"/><circle class="cls-4" cx="43.5" cy="774.69" r="43.5"/><circle class="cls-4" cx="44.5" cy="885.69" r="43.5"/><circle class="cls-4" cx="43.5" cy="1039.69" r="43.5"/><circle class="cls-4" cx="43.5" cy="1225.69" r="43.5"/><text class="cls-5" transform="translate(129.28 392.34)">t<tspan class="cls-6" x="24.82" y="0">a</tspan><tspan class="cls-7" x="66.98" y="0">r</tspan><tspan class="cls-6" x="90.91" y="0">g</tspan><tspan class="cls-7" x="133.07" y="0">e</tspan><tspan class="cls-6" x="171.29" y="0">t g</tspan><tspan class="cls-7" x="256.42" y="0">r</tspan><tspan class="cls-6" x="280.36" y="0">oup anal</tspan><tspan class="cls-8" x="559.9" y="0">y</tspan><tspan class="cls-9" x="593.7" y="0">si</tspan><tspan class="cls-6" x="642.11" y="0">s</tspan></text><text class="cls-10" transform="translate(129.06 501.38)">mar<tspan class="cls-8" x="124.92" y="0">k</tspan><tspan class="cls-11" x="159.05" y="0">e</tspan><tspan x="197.27" y="0">t anal</tspan><tspan class="cls-12" x="381.47" y="0">y</tspan><tspan class="cls-9" x="415.27" y="0">si</tspan><tspan x="463.69" y="0">s</tspan></text><text class="cls-10" transform="translate(129.06 680.38)">l<tspan class="cls-9" x="17.48" y="0">e</tspan><tspan class="cls-13" x="56.37" y="0">gal </tspan><tspan class="cls-9" x="174.96" y="0">i</tspan><tspan class="cls-14" x="192.1" y="0">s</tspan><tspan class="cls-15" x="221.68" y="0">s</tspan><tspan x="252.96" y="0">u</tspan><tspan class="cls-16" x="292.4" y="0">e</tspan><tspan class="cls-13" x="330.27" y="0">s</tspan></text><text class="cls-10" transform="translate(129.06 791.38)">mon<tspan class="cls-11" x="137.16" y="0">e</tspan><tspan class="cls-17" x="175.37" y="0">t</tspan><tspan x="200.87" y="0">i</tspan><tspan class="cls-8" x="218.34" y="0">z</tspan><tspan class="cls-18" x="248.4" y="0">a</tspan><tspan class="cls-17" x="290.56" y="0">t</tspan><tspan x="316.06" y="0">ion</tspan></text><text class="cls-10" transform="translate(129.06 902.38)">h<tspan class="cls-17" x="39.44" y="0">o</tspan><tspan class="cls-19" x="78.68" y="0">s</tspan><tspan class="cls-20" x="108.94" y="0">t</tspan><tspan x="134.44" y="0">ing</tspan></text><text class="cls-10" transform="translate(120.06 1057.38)">mar<tspan class="cls-8" x="124.92" y="0">k</tspan><tspan class="cls-11" x="159.05" y="0">e</tspan><tspan class="cls-17" x="197.27" y="0">t</tspan><tspan x="222.76" y="0">ing</tspan></text><text class="cls-21" transform="translate(120.06 1242.45)">f<tspan class="cls-6" x="21.21" y="0">oll</tspan><tspan class="cls-16" x="96.08" y="0">ow</tspan><tspan class="cls-6" x="185.43" y="0">-up</tspan></text></g></g></svg>