<svg xmlns="http://www.w3.org/2000/svg" viewBox="0 0 611.33 624"><defs><style>.cls-1,.cls-2{fill:#0061ff;}.cls-1{stroke:#000;stroke-miterlimit:10;stroke-width:10px;}</style></defs><title>work</title><g id="Ebene_2" data-name="Ebene 2"><g id="Ebene_1-2" data-name="Ebene 1"><rect class="cls-1" x="91.73" y="169.5" width="399.44" height="259"/><polygon class="cls-1" points="524.23 459 52.61 459 237.23 316 524.23 187.27 524.23 459"/><polygon class="cls-1" points="139.25 458.92 67.23 619 193.16 619 237.23 459 335.91 459.43 309.89 619 434.69 619 440.65 459.43 490.85 459.43 524.69 619 8.25 619 91.73 458.92 139.25 458.92"/><path class="cls-2" d="M335.64,36.05a18.94,18.94,0,0,0,13.09,5.23c2.31,0,4.5-.79,4.5-2.37s-1.71-2.37-5.72-3.1c-6.7-1.22-16.92-2.8-16.92-13,0-6.88,5.72-13.15,16.86-13.15a26.81,26.81,0,0,1,17.22,5.66l-6.57,8.7a20.27,20.27,0,0,0-11.32-4c-3,0-3.71,1.09-3.71,2.13,0,1.58,1.64,2.13,6,2.86,6.69,1.15,16.61,3.1,16.61,12.47,0,9-6.63,14.12-17.52,14.12-8.64,0-14.55-2.56-18.87-6.45Z"/><path class="cls-2" d="M382.49,41.41l-2.13,2.86V50.9H369.41V10.31h10.95V32l6.76-10.46h13.2L390.22,34.9,401,50.9H387.54Z"/><path class="cls-2" d="M406.83,53.15c2.13,0,3.47-.37,3.83-1.16l.25-.6L399.35,21.51h11.56l5.6,16.79,5.65-16.79h11.57L421,54.55c-2.62,6.81-7.49,8.09-13.69,8.27a22.58,22.58,0,0,1-4.26-.48l1.52-9.74A5.1,5.1,0,0,0,406.83,53.15Z"/><path class="cls-2" d="M435.85,21.51h11v3.34a13.11,13.11,0,0,1,9-4.07V31.24a8.76,8.76,0,0,0-2.49-.3c-2.32,0-5.3.61-6.51,2.07V50.9h-11Z"/><path class="cls-2" d="M457.57,36.17c0-8.21,6.09-15.39,16.49-15.39S490.62,28,490.62,36.17s-6.09,15.46-16.56,15.46S457.57,44.39,457.57,36.17Zm21.79,0c0-3.22-1.89-5.72-5.3-5.72s-5.23,2.5-5.23,5.72S470.72,42,474.06,42,479.36,39.46,479.36,36.17Z"/><path class="cls-2" d="M509.17,20.78c6.7,0,10.83,3,12.48,5.53L514.59,33a5.75,5.75,0,0,0-4.93-2.5,5.44,5.44,0,0,0-5.78,5.72A5.48,5.48,0,0,0,509.66,42a5.92,5.92,0,0,0,4.93-2.55l7.06,6.69c-1.65,2.43-5.78,5.54-12.48,5.54-9.31,0-16.49-6.09-16.49-15.46S499.86,20.78,509.17,20.78Z"/><path class="cls-2" d="M538.32,41.41l-2.13,2.86V50.9h-11V10.31h11V32l6.75-10.46h13.21L546,34.9l10.77,16H543.37Z"/><path class="cls-2" d="M572.51,20.78c8.64,0,15.27,6.2,15.27,16.55v2.25H567.83c.6,1.89,2.73,3.71,6.45,3.71a11.58,11.58,0,0,0,6.63-2.07l4.5,6.76c-2.92,2.49-8.15,3.65-12.53,3.65-9.19,0-16.37-5.78-16.37-15.46C556.51,27.65,563,20.78,572.51,20.78ZM567.7,32.64h9.68c-.3-1.27-1.34-3.53-4.87-3.53A4.58,4.58,0,0,0,567.7,32.64Z"/><path class="cls-2" d="M593.81,42.38V31h-4.87V21.51h4.87v-8h11v8h6V31h-6v8.22A2.51,2.51,0,0,0,607.19,42a4,4,0,0,0,2.19-.54l2,8.27c-1.16,1-3.71,2-7.42,2C597.4,51.63,593.81,48.52,593.81,42.38Z"/><path class="cls-2" d="M358.46,118.68H342.88l-1.58,5.23H328l15-40.58H358.4l15,40.58H360Zm-12.41-10.22h9.25l-4.63-14.3Z"/><path class="cls-2" d="M378.9,123.67a12.42,12.42,0,0,0,8.76,3.22c2.56,0,6.82-1,6.82-6.14v-1.58a10.44,10.44,0,0,1-8.28,4c-7.05,0-12.9-4.62-12.9-14.66,0-9.8,5.66-14.67,12.9-14.67a10.34,10.34,0,0,1,8.28,3.84V94.52h10.95v26.23c0,12.72-10.46,15.09-17.77,15.09a20.84,20.84,0,0,1-13.38-4.38Zm15.58-18.32a6.53,6.53,0,0,0-4.5-1.88c-3,0-5.48,1.4-5.48,5s2.5,5,5.48,5a6.5,6.5,0,0,0,4.5-1.89Z"/><path class="cls-2" d="M425.51,93.79c8.64,0,15.27,6.21,15.27,16.55v2.25h-20c.61,1.89,2.74,3.72,6.45,3.72a11.67,11.67,0,0,0,6.64-2.07l4.5,6.75c-2.92,2.5-8.15,3.65-12.54,3.65-9.18,0-16.36-5.78-16.36-15.45C409.51,100.67,416,93.79,425.51,93.79Zm-4.81,11.87h9.68c-.31-1.28-1.34-3.53-4.87-3.53A4.58,4.58,0,0,0,420.7,105.66Z"/><path class="cls-2" d="M464.45,107.67c0-3-1.64-4.2-4.26-4.2a5.78,5.78,0,0,0-4.68,2.31v18.13h-11V94.52h11v3.35c1.7-2,4.92-4.08,10.1-4.08,6.81,0,9.79,4.14,9.79,9.25v20.87H464.45Z"/><path class="cls-2" d="M496,93.79c6.69,0,10.83,3,12.47,5.54L501.38,106a5.71,5.71,0,0,0-4.92-2.49,5.75,5.75,0,1,0,0,11.5,5.9,5.9,0,0,0,4.92-2.56l7.06,6.69c-1.64,2.44-5.78,5.54-12.47,5.54-9.31,0-16.49-6.08-16.49-15.45S486.66,93.79,496,93.79Z"/><path class="cls-2" d="M515.56,126.16c2.13,0,3.47-.36,3.83-1.15l.25-.61L508.08,94.52h11.56l5.59,16.8,5.66-16.8h11.56l-12.77,33c-2.62,6.82-7.49,8.1-13.69,8.28a21.77,21.77,0,0,1-4.26-.49l1.52-9.73A5.22,5.22,0,0,0,515.56,126.16Z"/><rect class="cls-2" x="69.76" y="36.43" width="114.85" height="54.19" rx="27.09"/><rect class="cls-2" x="118.29" y="5.7" width="62.28" height="62.28" rx="31.14"/><rect class="cls-2" x="40.65" y="73.63" width="237.79" height="54.19" rx="27.09"/><rect class="cls-2" x="159.54" width="100.94" height="100.94" rx="50.47"/></g></g></svg>